<svg xmlns="http://www.w3.org/2000/svg" xmlns:xlink="http://www.w3.org/1999/xlink" viewBox="0 0 250.54 261.79"><defs><style>.cls-1{fill:url(#radial-gradient);}.cls-2{fill:url(#radial-gradient-2);}.cls-3{fill:url(#linear-gradient);}.cls-4{fill:#b04505;}.cls-5{fill:url(#linear-gradient-2);}.cls-6{fill:url(#radial-gradient-3);}.cls-7{fill:#fffdf5;}.cls-8{fill:#fba30c;}.cls-9{fill:#f45b07;}.cls-10{fill:#fbea1a;}.cls-11{fill:url(#linear-gradient-3);}.cls-12{fill:url(#linear-gradient-4);}.cls-13{fill:#69210b;}.cls-14{fill:url(#linear-gradient-5);}.cls-15{fill:url(#linear-gradient-6);}.cls-16{fill:#b38b31;}.cls-17{fill:#b82603;}.cls-18{fill:#826525;}.cls-19{fill:url(#linear-gradient-7);}.cls-20{fill:url(#linear-gradient-8);}.cls-21{fill:url(#linear-gradient-9);}.cls-22{fill:url(#linear-gradient-10);}.cls-23{fill:url(#linear-gradient-11);}.cls-24{fill:#6c5a4b;}.cls-25{fill:#0a0800;}.cls-26{fill:#fac042;}.cls-27{fill:#fdd983;}.cls-28{fill:#593425;}.cls-29{fill:#906354;}.cls-30{fill:#45291c;}</style><radialGradient id="radial-gradient" cx="1775.14" cy="210.39" r="55.66" gradientTransform="matrix(-1, -0.08, -0.08, 1, 1827.88, 52.91)" gradientUnits="userSpaceOnUse"><stop offset="0" stop-color="#fba30c"/><stop offset="0.21" stop-color="#fa9b0b"/><stop offset="0.55" stop-color="#f8840a"/><stop offset="0.97" stop-color="#f45e07"/><stop offset="1" stop-color="#f45b07"/></radialGradient><radialGradient id="radial-gradient-2" cx="1721.36" cy="270.27" r="49.06" gradientTransform="matrix(-1, -0.08, -0.08, 1, 1827.88, 52.91)" gradientUnits="userSpaceOnUse"><stop offset="0.51" stop-color="#f45b07"/><stop offset="0.52" stop-color="#f45e07"/><stop offset="0.73" stop-color="#f8840a"/><stop offset="0.9" stop-color="#fa9b0b"/><stop offset="1" stop-color="#fba30c"/></radialGradient><linearGradient id="linear-gradient" x1="1694.74" y1="337.74" x2="1694.74" y2="328.12" gradientTransform="matrix(-1, -0.08, -0.08, 1, 1827.88, 52.91)" gradientUnits="userSpaceOnUse"><stop offset="0" stop-color="#f45b07"/><stop offset="0.03" stop-color="#f45e07"/><stop offset="0.45" stop-color="#f8840a"/><stop offset="0.79" stop-color="#fa9b0b"/><stop offset="1" stop-color="#fba30c"/></linearGradient><linearGradient id="linear-gradient-2" x1="1725.46" y1="337.99" x2="1725.46" y2="328.38" xlink:href="#linear-gradient"/><radialGradient id="radial-gradient-3" cx="1676.04" cy="248.61" r="58.9" xlink:href="#radial-gradient-2"/><linearGradient id="linear-gradient-3" x1="1673.66" y1="297.71" x2="1673.66" y2="287.47" gradientTransform="matrix(-1, -0.08, -0.08, 1, 1827.88, 52.91)" gradientUnits="userSpaceOnUse"><stop offset="0.01" stop-color="#f77009"/><stop offset="1" stop-color="#f45b07"/></linearGradient><linearGradient id="linear-gradient-4" x1="1651.1" y1="297.25" x2="1651.1" y2="287.98" xlink:href="#linear-gradient-3"/><linearGradient id="linear-gradient-5" x1="1634.03" y1="341.06" x2="1634.03" y2="329.23" xlink:href="#linear-gradient"/><linearGradient id="linear-gradient-6" x1="1670.37" y1="341.06" x2="1670.37" y2="329.24" xlink:href="#linear-gradient"/><linearGradient id="linear-gradient-7" x1="-688.2" y1="-333.53" x2="-673.34" y2="-317.03" gradientTransform="translate(882.44 135.42) rotate(-19.43)" gradientUnits="userSpaceOnUse"><stop offset="0" stop-color="#fba30c"/><stop offset="1" stop-color="#f45b07"/></linearGradient><linearGradient id="linear-gradient-8" x1="1683.95" y1="133.4" x2="1694.27" y2="144.87" gradientTransform="matrix(-1, -0.08, -0.08, 1, 1827.88, 52.91)" gradientUnits="userSpaceOnUse"><stop offset="0" stop-color="#f58618"/><stop offset="1" stop-color="#fba30c"/></linearGradient><linearGradient id="linear-gradient-9" x1="1623.66" y1="124.75" x2="1638.51" y2="141.25" gradientTransform="matrix(-1, -0.08, -0.08, 1, 1827.88, 52.91)" xlink:href="#linear-gradient-7"/><linearGradient id="linear-gradient-10" x1="1628.64" y1="129.93" x2="1637.62" y2="139.91" gradientTransform="matrix(-1, -0.08, -0.08, 1, 1827.88, 52.91)" gradientUnits="userSpaceOnUse"><stop offset="0" stop-color="#fba30c"/><stop offset="1" stop-color="#f58618"/></linearGradient><linearGradient id="linear-gradient-11" x1="1652.82" y1="197.73" x2="1652.82" y2="132.98" gradientTransform="matrix(-1, -0.08, -0.08, 1, 1827.88, 52.91)" gradientUnits="userSpaceOnUse"><stop offset="0" stop-color="#f45b07"/><stop offset="1" stop-color="#fba30c"/></linearGradient></defs><g id="katman_2" data-name="katman 2"><g id="Calque_1" data-name="Calque 1"><path class="cls-1" d="M76,139.69a38.2,38.2,0,0,0-10.1-10c-3.69-2.55-8.85-5-13.15-2.46-4.78,2.78-5.62,9.23-6.12,14.2-.69,6.91-.13,13.7.11,20.63.19,6,.6,13-2.6,18.26-2.49,4.12-7.27,6.1-11.78,7-9.71,1.93-19.71-.26-25.83-8.42C1,171.49,0,161.34,0,152.41c.08-12.62,3.46-25.89,11.92-35.62,4.45-5.12,10-9.09,15.31-13.25s10.8-8.43,14.58-14a23.81,23.81,0,0,0,3.8-18.47c-1.1-5-4.58-8.56-8.71-11.35-2.28-1.55-4.7-2.87-7.1-4.22-2.16-1.22-1.87-5.47,1-3.85,4.46,2.51,9,5,12.62,8.67a23.57,23.57,0,0,1,6.62,13.83A27.9,27.9,0,0,1,46.2,91.73c-3.26,5.64-8.58,9.79-13.51,13.89-5.25,4.38-10.92,8.2-15.76,13.06-5,5.07-8.48,12.07-10.63,18.82a58.79,58.79,0,0,0-.5,31.58A20.93,20.93,0,0,0,12,179.61c3.63,3.17,8.75,3.86,13.39,3.73,4.95-.15,10.75-1.27,14.19-5.14a12.58,12.58,0,0,0,2.76-6.45c.64-3.94.39-8.2.26-12.17-.23-6.84-.69-13.48,0-20.31.48-4.84,1.27-10.92,5.08-14.4,8.08-7.39,18.57-.42,25.12,5.71a41.3,41.3,0,0,1,6.08,7.06c1.73,2.59-1.13,4.65-2.88,2.05Z"/><path class="cls-2" d="M97.47,126.3s-38.35,1.06-42.4,40.15,21.11,44.29,21.11,44.29l1.08,32,14.35.89L87.17,212s10.61-10.59,20,.08l-4.9,32.39,12.38,1,2.42-32.78,7.63-8.21S140.21,135.32,97.47,126.3Z"/><path class="cls-3" d="M114.61,245.16s9.56.4,6.88,7.39a6.12,6.12,0,0,1-5.15-.41s-2.16,3.4-7.44,0c0,0-1.4,3.87-7.21-.3l.69-7.61S109.72,243.86,114.61,245.16Z"/><path class="cls-4" d="M116.34,252.14s2.57-4.94-3.06-5.9C113.28,246.24,117.8,247.11,116.34,252.14Z"/><path class="cls-4" d="M108.9,252.09s2.26-4.58-2.11-6.37C106.79,245.72,110.31,247.35,108.9,252.09Z"/><path class="cls-5" d="M79.38,242.59s-9.5-1.12-8,6.2a6.1,6.1,0,0,0,5.15.41s1.59,3.7,7.35,1.14c0,0,.76,4,7.16.85l.53-7.62S84.42,242.08,79.38,242.59Z"/><path class="cls-4" d="M76.57,249.2s-1.76-5.28,4-5.34C80.53,243.86,75.92,244,76.57,249.2Z"/><path class="cls-4" d="M83.92,250.34s-1.5-4.88,3.1-6C87,244.38,83.28,245.44,83.92,250.34Z"/><path class="cls-6" d="M169.32,122.16c23.94,1.92,40.4,27.48,33.57,60.63-2.7,13.14-11.62,20.53-19.75,25.9-11,7.3-19.27,10.08-44.09,6.79-65.44.29-81.38-22.84-61.9-74.64C88.91,109.57,151.5,116.89,169.32,122.16Z"/><polygon class="cls-7" points="202.81 182.88 202.98 182.71 201.68 181.48 201.51 181.66 202.81 182.88 202.81 182.88"/><polygon class="cls-7" points="194.2 171.56 195.73 170.34 195.58 170.15 194.05 171.37 194.2 171.56 194.2 171.56"/><polygon class="cls-7" points="187.55 192.08 187.71 191.9 185.98 190.43 185.82 190.61 187.55 192.08 187.55 192.08"/><polygon class="cls-8" points="162.28 179.09 164.79 178.73 164.76 178.5 162.25 178.86 162.28 179.09 162.28 179.09"/><polygon class="cls-7" points="145.82 203.03 146.02 202.91 144.91 201.15 144.71 201.28 145.82 203.03 145.82 203.03"/><polygon class="cls-7" points="120.15 142.11 120.22 141.88 118.05 141.29 117.99 141.52 120.15 142.11 120.15 142.11"/><polygon class="cls-7" points="178.06 154.39 179.79 154.52 179.81 154.28 178.08 154.15 178.06 154.39 178.06 154.39"/><polygon class="cls-7" points="163.78 205.14 164.01 205.12 163.75 202.71 163.52 202.73 163.78 205.14 163.78 205.14"/><polygon class="cls-8" points="133.8 163.66 133.88 163.43 131.85 162.69 131.77 162.92 133.8 163.66 133.8 163.66"/><polygon class="cls-8" points="125.71 173.93 128.13 173.43 128.09 173.19 125.67 173.69 125.71 173.93 125.71 173.93"/><polygon class="cls-8" points="122.68 191.43 125.5 191.25 125.48 191.02 122.67 191.19 122.68 191.43 122.68 191.43"/><polygon class="cls-9" points="92.82 182.96 92.98 182.79 91.22 181.09 91.05 181.26 92.82 182.96 92.82 182.96"/><polygon class="cls-7" points="79.06 194.2 82.06 194.44 82.07 194.21 79.08 193.97 79.06 194.2 79.06 194.2"/><polygon class="cls-7" points="102.62 202.15 104.2 200.35 104.02 200.19 102.44 201.99 102.62 202.15 102.62 202.15"/><polygon class="cls-9" points="184.31 176.02 184.42 175.81 181.73 174.38 181.61 174.59 184.31 176.02 184.31 176.02"/><polygon class="cls-10" points="180.82 202.24 181.06 202.21 180.77 199.62 180.53 199.65 180.82 202.24 180.82 202.24"/><polygon class="cls-10" points="189.12 162.06 191.9 161.97 191.9 161.73 189.11 161.82 189.12 162.06 189.12 162.06"/><polygon class="cls-8" points="132.99 149.03 135.2 147.48 135.07 147.28 132.85 148.84 132.99 149.03 132.99 149.03"/><polygon class="cls-9" points="76.58 170.63 78.51 168.74 78.34 168.56 76.41 170.45 76.58 170.63 76.58 170.63"/><path class="cls-11" d="M139.77,206c1.58,3.51,5.36,1.58,5.36,1.58l-2.92,8.31-1.42-.18-1.74-.22q-6.24,0-11.86-.23C136.57,212.82,139.77,206,139.77,206Z"/><path class="cls-12" d="M146.2,216.3c13.2-.45,18.18-7.83,18.18-7.83,5,2.38,6.33,4.68,6.31,6.5C164.64,216.85,157.37,217.37,146.2,216.3Z"/><path class="cls-13" d="M151.7,180.81a.29.29,0,0,1,0-.09,5.9,5.9,0,0,1,5.82-4.75,7.24,7.24,0,0,1,.94,0,5.8,5.8,0,0,1,5.08,4.77h0l1.73,2.49,1.64-3.47v-.08a6,6,0,0,1,4.71-5.64,6.53,6.53,0,0,1,2.27-.15,5.76,5.76,0,0,1,4.65,3.56l2.27,2.1,1.13-4v0a6,6,0,0,1,3.55-6.35,6.1,6.1,0,0,1,3.36-.59,5.89,5.89,0,0,1,4,2.43l2.94,1.69.4-4.3a6,6,0,0,1,2.34-6.9,6,6,0,0,1,4.27-1.18,6.18,6.18,0,0,1,3.24,1.47l3.6,1.12-.42-4.19a6.25,6.25,0,0,1,6-9.17,6.52,6.52,0,0,1,2.31.75l4.06.4-1.22-3.8a6.2,6.2,0,0,1,5.27-10.19A8,8,0,0,1,227,137l2.88-.27,1.3-.12-1.93-3.3a6.16,6.16,0,0,1,4.44-11l2.69-.76,1.27-.36-2.61-2.83a6.15,6.15,0,0,1,2.15-11.75h0l2.87-1.42.67-.33-3.36-2.42h0a6,6,0,0,1-4.79-5.77,5.91,5.91,0,0,1,4.59-6.19l2.17-1.68s.7-.53.88-.68L236,86.1h-.08l-.45,0a6,6,0,0,1-5.31-4.57,5.91,5.91,0,0,1,3.15-7.08l1.7-2,.85-1-5-1.3h-.06a8.27,8.27,0,0,1-1.77,0,6.07,6.07,0,0,1-4.73-3.38,5.94,5.94,0,0,1,1.48-7.57l1.16-2.33.78-1.57-5.57-.37a6.8,6.8,0,0,1-2.93.35,6.26,6.26,0,0,1-4.13-2.38,6,6,0,0,1-.24-7.6l1.06-4.84-3.24.42-2.38.31a6.25,6.25,0,0,1-4,.93,6.6,6.6,0,0,1-3.42-1.55,6.08,6.08,0,0,1-1.83-7.23l-.07-2.8-.07-2.87c-1.07.38-1.21.43-2.53.92l-2.52.92a6,6,0,0,1-4.95,1.8,6.8,6.8,0,0,1-2.56-.88,6.19,6.19,0,0,1-3.22-6.61l-.82-3.25-.72-2.82-2.31,1.57-1.69,1.15a5.77,5.77,0,0,1-5.81,3h0a7.14,7.14,0,0,1-1.51-.35,6.27,6.27,0,0,1-4.41-5.74s0-.07,0-.11l-2.82-5.85-1.12,1.3-1.66,2A5.82,5.82,0,0,1,155.71,19h-.13a6.31,6.31,0,0,1-5.44-4.77c0-.06,0-.13-.07-.2l-3.7-5-1.67,3.57a5.89,5.89,0,0,1-5.5,6,6.9,6.9,0,0,1-1.44,0,6.38,6.38,0,0,1-4.94-3.64l-.14-.25-4.06-3.87-.74,3.86,0,.13c.86,5-2.74,6.67-3.86,7.07a6.11,6.11,0,0,1-7.24-2.32l-.18-.22-4-2.64.13,4.28c0,.07.06.16.08.23,1.58,4.19-.61,6.53-2,7.55a6,6,0,0,1-4.2,1.13,6.5,6.5,0,0,1-3.66-1.8l-.16-.15L99,26.37l1.1,4.83.15.27c2,3.4,1,6-.31,7.51a5.79,5.79,0,0,1-5.25,2.24,6.79,6.79,0,0,1-2.78-1l-.08,0-3.65-.61.84,2,1.4,3.33.19.23a6.28,6.28,0,0,1,1.2,7.15,5.74,5.74,0,0,1-6,3.52,7.35,7.35,0,0,1-1.57-.38l-3.68.32L84,61.11l.17.13a6.38,6.38,0,0,1,2.5,6.65,5.78,5.78,0,0,1-6.38,4.82L78,73.56l-1.55.59L81,79.08l.08,0a6.36,6.36,0,0,1,3.72,6.07,5.93,5.93,0,0,1-4.87,6l-2.23,1.65L76.13,94l5.16,3.79a6.23,6.23,0,0,1,4.87,5.32,6,6,0,0,1-3.31,6.65l-1.62,2L79.41,114l5.17,2.28a7.62,7.62,0,0,1,.88,0,6,6,0,0,1,5.05,4.29,6.12,6.12,0,0,1-1.86,7l-1.26,2.54c-.69,1.4-.7,1.43-1.37,2.8l4.61.78a6.17,6.17,0,0,1,2.35-.19,5.92,5.92,0,0,1,4.57,3.27,6.23,6.23,0,0,1-.54,7.1h0l-.81,3-.77,2.8,3.77-.36a6,6,0,0,1,3.68-.81,5.88,5.88,0,0,1,4,2.3,6.21,6.21,0,0,1,.77,7l0,.1-.54,5.47,1.49-.54,1.5-.55a5.86,5.86,0,0,1,4.76-1.7,6,6,0,0,1,3.15,1.38,6.14,6.14,0,0,1,2.07,6.84c0,.05,0,.1,0,.15l.2,3.2.1,1.51,2.45-1.61a5.77,5.77,0,0,1,5.57-2.72,6.28,6.28,0,0,1,2,.62,6,6,0,0,1,3.43,6.48c0,.05,0,.1,0,.15l.89,3.81.17-.17,2-2,0-.05c1.72-3.66,4.62-3.9,6.2-3.71a5.89,5.89,0,0,1,.65.11c1.66.36,4.48,1.6,4.79,5.83a.31.31,0,0,1,0,.1l1.32,3Z"/><path class="cls-8" d="M147.67,207.56a14,14,0,0,1-7.9-1.57l-5.42,42,14,1.13Z"/><path class="cls-8" d="M172.82,209.58a9.23,9.23,0,0,1-8.44-1.11l-3.87,41.58,15.05,1.2Z"/><path class="cls-14" d="M175.56,251.25s11.76.5,8.46,9.1c0,0-2.64,1.3-6.33-.51,0,0-2.66,4.17-9.16-.06,0,0-1.72,4.76-8.87-.37l.85-9.36S169.54,249.65,175.56,251.25Z"/><path class="cls-15" d="M133.18,247.86s-11.69-1.39-9.79,7.63c0,0,2.4,1.71,6.33.51,0,0,2,4.54,9,1.39,0,0,2,5.06,9.83,1.13l-.2-9.44S139.38,247.23,133.18,247.86Z"/><path class="cls-4" d="M177.69,259.84s3.16-6.08-3.77-7.26C173.92,252.58,179.49,253.65,177.69,259.84Z"/><path class="cls-4" d="M168.53,259.78s2.78-5.64-2.6-7.85C165.93,251.93,170.27,254,168.53,259.78Z"/><path class="cls-4" d="M138.76,257.39s-1.65-7.58,3.56-7C142.32,250.36,138.16,249.73,138.76,257.39Z"/><path class="cls-4" d="M129.72,256s-2.56-6.1,4.51-6.61C134.23,249.39,128.2,249.8,129.72,256Z"/><path class="cls-16" d="M205.29,134.86h.14a.93.93,0,0,0,0-1.85h-.14a.92.92,0,0,0-.86,1,.92.92,0,0,0,.84.87Z"/><path class="cls-17" d="M29.71,43.48s6,4,1.31,10.29-12.19,3.56-15.68.48-5.73-15-15.14-11c0,0,5.75-4.51,11.7-3,0,0-3-1.16-5.08-6.72a11.92,11.92,0,0,0,7.53,5.94C22.4,41.34,25.8,40.7,29.71,43.48Z"/><path class="cls-17" d="M79.5,88.07c0,1.75-1.17.93-2.34,1.86s-1.18.92-2.34,1.86l-2.33,1.87-2.33,1.89c-1.15,1-2.52.12-2.31,1.89s1.39,1,2.77,1.89l2.76,1.87,2.75,1.86,2.75,1.86c1.37.93,2.38.12,2.74,1.86s-.94,1.23-1.87,2.46l-1.85,2.47-1.85,2.48c-.92,1.24-.92,1.24-1.83,2.49s-2.34.78-1.83,2.5,1.45.58,2.9,1.16l2.9,1.15,2.89,1.15L84,123.78c1.45.57,2.26-.5,2.89,1.14s-.67,1.46-1.33,2.93l-1.32,2.93c-.66,1.47-.66,1.47-1.31,2.95l-1.31,3c-.65,1.48-2.06,1.39-1.3,3s1.45.19,2.91.38l2.92.38,2.91.39,2.92.38c1.46.19,2-1.08,2.92.39s-.39,1.61-.77,3.23-.39,1.62-.77,3.24l-.76,3.25-.76,3.25c-.37,1.63-1.72,1.91-.75,3.26s1.41-.19,2.82-.39L96.7,157l2.84-.38,2.84-.37c1.41-.19,1.77-1.59,2.84-.37s-.11,1.68-.21,3.37-.1,1.69-.21,3.37l-.2,3.38c-.11,1.69-.11,1.69-.21,3.37s-1.35,2.31-.21,3.38,1.32-.55,2.64-1.1l2.64-1.1,2.66-1.08,2.66-1.08c1.34-.54,1.45-2,2.67-1.08s.17,1.67.35,3.34.16,1.67.33,3.33l.34,3.33c.17,1.67.17,1.67.33,3.33s-.94,2.59.33,3.33,1.18-.87,2.37-1.73l2.39-1.73,2.39-1.71,2.41-1.71c1.21-.85,1.09-2.29,2.42-1.7s.43,1.57.87,3.15l.86,3.14c.43,1.57.43,1.57.85,3.14s.43,1.56.85,3.12-.51,2.72.84,3.13,1-1.13,2.05-2.26l2-2.24,2.07-2.24,2.08-2.22c1-1.12.69-2.47,2.09-2.22s.68,1.41,1.36,2.82.67,1.41,1.35,2.82l1.34,2.81,1.34,2.8c.66,1.4-.07,2.73,1.32,2.79s.83-1.32,1.66-2.65l1.66-2.63,1.68-2.64,1.68-2.62c.85-1.31.28-2.53,1.7-2.62s.9,1.2,1.81,2.4l1.8,2.39,1.79,2.38,1.79,2.37c.88,1.19.37,2.63,1.77,2.37s.6-1.46,1.21-2.91l1.22-2.9,1.22-2.9,1.24-2.9c.62-1.44-.16-2.49,1.24-2.88s1.1.94,2.21,1.89l2.2,1.88,2.19,1.88,2.19,1.87c1.09.93.82,2.42,2.18,1.86s.35-1.52.71-3l.72-3,.72-3c.36-1.52.36-1.52.73-3s-.6-2.35.72-3,1.28.67,2.55,1.34l2.54,1.33,2.54,1.33,2.53,1.32c1.26.66,1.26,2.14,2.52,1.32s.09-1.53.18-3,.08-1.53.17-3.05.09-1.53.17-3.06l.18-3.07c.08-1.53-1-2.13.16-3.06s1.41.38,2.81.76l2.8.76,2.8.75,2.8.75c1.4.38,1.67,1.79,2.8.75s-.2-1.48-.4-3-.2-1.48-.41-3-.2-1.48-.41-3l-.42-3c-.21-1.49-1.44-1.84-.42-3s1.48.09,3,.17l3,.18,3,.17,3,.18c1.49.09,2,1.39,3,.18s-.5-1.39-1-2.77l-1-2.78-1-2.79-1-2.79c-.51-1.41-1.83-1.51-1-2.81s1.51-.21,3-.41l3-.4,3-.4,3-.39c1.52-.19,2.35,1,3-.38s-.79-1.25-1.58-2.5l-1.59-2.51c-.8-1.25-.8-1.25-1.6-2.52l-1.61-2.53c-.81-1.26-2.15-1.11-1.62-2.54s1.46-.48,2.93-1l2.94-1,3-1,3-.94c1.48-.47,2.57.51,3-.93s-1.06-1.08-2.13-2.15L243.37,116l-2.16-2.17-2.16-2.18c-1.09-1.1-2.39-.7-2.18-2.2s1.36-.74,2.71-1.49l2.72-1.48L245,105l2.75-1.47c1.37-.73,2.69,0,2.75-1.45s-1.3-.87-2.61-1.73l-2.63-1.74-2.63-1.75L240,95.11c-1.33-.88-2.53-.24-2.65-1.76s1.17-1,2.34-2l2.36-2,2.37-2,2.38-2c1.19-1,2.67-.45,2.39-1.94s-1.5-.63-3-1.25l-3-1.25-3-1.26-3-1.26c-1.51-.63-2.54.22-3-1.27s.93-1.2,1.86-2.41l1.85-2.4,1.87-2.4,1.88-2.39c.94-1.19,2.51-.93,1.88-2.38s-1.62-.35-3.24-.7l-3.23-.71-3.24-.7-3.24-.71c-1.62-.35-2.43.7-3.24-.7s.62-1.39,1.24-2.77l1.24-2.77c.63-1.38.63-1.38,1.25-2.76l1.26-2.76c.63-1.37,2.22-1.41,1.26-2.75s-1.66,0-3.32-.11l-3.31-.1-3.31-.1-3.31-.1c-1.65,0-2.19,1.17-3.31-.09s.28-1.52.55-3l.54-3c.28-1.52.28-1.52.55-3l.54-3c.28-1.52,1.81-1.86.55-3s-1.61.26-3.22.53l-3.21.53-3.2.54-3.2.55c-1.6.27-1.83,1.61-3.2.55s-.09-1.6-.19-3.19-.11-1.6-.2-3.2-.11-1.6-.21-3.2-.11-1.61-.21-3.21,1.27-2.25-.21-3.21-1.47.58-2.94,1.17l-2.94,1.18-2.92,1.19L191,23.68c-1.46.61-1.36,2-2.91,1.21s-.47-1.6-.94-3.22-.47-1.61-.95-3.22-.47-1.62-1-3.24l-1-3.24c-.49-1.63.66-2.57-1-3.26s-1.26.9-2.51,1.81l-2.48,1.81-2.49,1.82L173.35,16c-1.24.92-.81,2.35-2.47,1.84s-.81-1.54-1.63-3.1l-1.65-3.1c-.83-1.56-.83-1.56-1.65-3.13S164.74,7,164.28,5.37c-.51-1.83,0-2.78-1.68-3.14s-1,1.19-1.92,2.38L158.77,7l-1.91,2.4L155,11.82c-.94,1.22-.22,2.59-1.89,2.43s-1.12-1.42-2.24-2.83l-2.25-2.84-2.27-2.85L144,2.87C142.89,1.44,143.41,0,141.75,0s-.62,1.44-1.24,2.88l-1.24,2.89L138,8.66l-1.22,2.9c-.61,1.45.37,2.7-1.22,2.91s-1.36-1.2-2.72-2.41l-2.74-2.41L127.4,7.23l-2.76-2.44c-1.38-1.22-1.22-2.82-2.76-2.44s-.25,1.62-.5,3.25-.25,1.63-.51,3.25-.24,1.63-.49,3.26l-.5,3.26c-.25,1.63.94,2.69-.5,3.27s-1.52-.93-3-1.85l-3.06-1.85-3.07-1.85-3.08-1.87c-1.54-.93-1.75-2.62-3.08-1.87s.12,1.74.24,3.47l.24,3.46.24,3.47.24,3.46c.11,1.74,1.44,2.54.23,3.47s-1.61-.59-3.22-1.18l-3.22-1.16-3.22-1.18L92.34,22c-1.61-.59-2.16-2.27-3.23-1.18s.48,1.75,1,3.51L91,27.8l.94,3.5c.47,1.74.47,1.74.93,3.49s1.86,2.24.93,3.48-1.61-.21-3.21-.42l-3.21-.41L84.17,37,81,36.62c-1.6-.21-2.45-1.8-3.21-.41s.79,1.67,1.58,3.35.79,1.67,1.57,3.34l1.56,3.34L84,49.57c.77,1.66,2.16,1.83,1.55,3.32s-1.53.18-3.06.37l-3,.37-3,.38-3,.39c-1.52.2-2.6-1.21-3,.39s1,1.51,2.1,3l2.09,3,2.09,3,2.07,3c1,1.5,2.35,1.32,2.07,3s-1.38.58-2.75,1.15l-2.75,1.15-2.74,1.16-2.73,1.17c-1.36.59-2.62-.56-2.72,1.17s1.25,1.26,2.5,2.52l2.49,2.5,2.48,2.5L77,85.59C78.27,86.83,79.46,86.32,79.5,88.07Zm5.32-2.89a6.36,6.36,0,0,0-3.72-6.07l-.08,0-4.54-4.93L78,73.56l2.27-.85a5.78,5.78,0,0,0,6.38-4.82,6.38,6.38,0,0,0-2.5-6.65L84,61.11l-3.47-5.43,3.68-.32a7.35,7.35,0,0,0,1.57.38,5.74,5.74,0,0,0,6-3.52,6.28,6.28,0,0,0-1.2-7.15l-.19-.23L89,41.51l-.84-2,3.65.61.08,0a6.79,6.79,0,0,0,2.78,1A5.79,5.79,0,0,0,99.9,39c1.26-1.55,2.33-4.11.31-7.51l-.15-.27L99,26.37l3.81,1.55.16.15a6.5,6.5,0,0,0,3.66,1.8,6,6,0,0,0,4.2-1.13c1.43-1,3.62-3.36,2-7.55,0-.07-.06-.16-.08-.23l-.13-4.28,4,2.64.18.22a6.11,6.11,0,0,0,7.24,2.32c1.12-.4,4.72-2.1,3.86-7.07l0-.13.74-3.86,4.06,3.87.14.25a6.38,6.38,0,0,0,4.94,3.64,6.9,6.9,0,0,0,1.44,0,5.89,5.89,0,0,0,5.5-6L146.37,9l3.7,5c0,.07.05.14.07.2A6.31,6.31,0,0,0,155.58,19h.13a5.82,5.82,0,0,0,6.56-4.42l1.66-2,1.12-1.3,2.82,5.85s0,.07,0,.11A6.27,6.27,0,0,0,172.29,23a7.14,7.14,0,0,0,1.51.35h0a5.77,5.77,0,0,0,5.81-3l1.69-1.15,2.31-1.57.72,2.82.82,3.25a6.19,6.19,0,0,0,3.22,6.61,6.8,6.8,0,0,0,2.56.88,6,6,0,0,0,4.95-1.8l2.52-.92c1.32-.49,1.46-.54,2.53-.92l.07,2.87.07,2.8a6.08,6.08,0,0,0,1.83,7.23,6.6,6.6,0,0,0,3.42,1.55,6.25,6.25,0,0,0,4-.93l2.38-.31,3.24-.42-1.06,4.84a6,6,0,0,0,.24,7.6,6.26,6.26,0,0,0,4.13,2.38,6.8,6.8,0,0,0,2.93-.35l5.57.37-.78,1.57-1.16,2.33a5.94,5.94,0,0,0-1.48,7.57A6.07,6.07,0,0,0,229,70.08a8.27,8.27,0,0,0,1.77,0h.06l5,1.3-.85,1-1.7,2a5.91,5.91,0,0,0-3.15,7.08A6,6,0,0,0,235.48,86l.45,0H236L240.2,88c-.18.15-.88.68-.88.68l-2.17,1.68a5.91,5.91,0,0,0-4.59,6.19,6,6,0,0,0,4.79,5.77h0l3.36,2.42-.67.33-2.87,1.42h0a6.15,6.15,0,0,0-2.15,11.75l2.61,2.83-1.27.36-2.69.76a6.16,6.16,0,0,0-4.44,11l1.93,3.3-1.3.12L227,137a8,8,0,0,0-1.26-.26,6.2,6.2,0,0,0-5.27,10.19l1.22,3.8-4.06-.4a6.52,6.52,0,0,0-2.31-.75,6.25,6.25,0,0,0-6,9.17l.42,4.19-3.6-1.12a6.18,6.18,0,0,0-3.24-1.47,6,6,0,0,0-4.27,1.18,6,6,0,0,0-2.34,6.9l-.4,4.3L192.92,171a5.89,5.89,0,0,0-4-2.43,6.1,6.1,0,0,0-3.36.59,6,6,0,0,0-3.55,6.35v0l-1.13,4-2.27-2.1a5.76,5.76,0,0,0-4.65-3.56,6.53,6.53,0,0,0-2.27.15,6,6,0,0,0-4.71,5.64v.08l-1.64,3.47-1.73-2.49h0a5.8,5.8,0,0,0-5.08-4.77,7.24,7.24,0,0,0-.94,0,5.9,5.9,0,0,0-5.82,4.75.29.29,0,0,0,0,.09l-1.94,2.78-1.32-3a.31.31,0,0,0,0-.1c-.31-4.23-3.13-5.47-4.79-5.83a5.89,5.89,0,0,0-.65-.11c-1.58-.19-4.48.05-6.2,3.71l0,.05-2,2-.17.17-.89-3.81c0-.05,0-.1,0-.15a6,6,0,0,0-3.43-6.48,6.28,6.28,0,0,0-2-.62,5.77,5.77,0,0,0-5.57,2.72l-2.45,1.61-.1-1.51L120,169c0-.05,0-.1,0-.15a6.14,6.14,0,0,0-2.07-6.84,6,6,0,0,0-3.15-1.38,5.86,5.86,0,0,0-4.76,1.7l-1.5.55-1.49.54.54-5.47,0-.1a6.21,6.21,0,0,0-.77-7,5.88,5.88,0,0,0-4-2.3,6,6,0,0,0-3.68.81l-3.77.36.77-2.8.81-3h0a6.23,6.23,0,0,0,.54-7.1A5.92,5.92,0,0,0,93,133.54a6.17,6.17,0,0,0-2.35.19L86,133c.67-1.37.68-1.4,1.37-2.8l1.26-2.54a6.12,6.12,0,0,0,1.86-7,6,6,0,0,0-5.05-4.29,7.62,7.62,0,0,0-.88,0L79.41,114l1.82-2.25,1.62-2a6,6,0,0,0,3.31-6.65,6.23,6.23,0,0,0-4.87-5.32L76.13,94l1.59-1.18L80,91.16A5.93,5.93,0,0,0,84.82,85.18Z"/><path class="cls-16" d="M142.22,151.78c-.73,9.12,10.85,17.49,25.88,18.7s27.8-5.22,28.53-14.34-10.86-17.5-25.88-18.7S143,142.66,142.22,151.78Z"/><path class="cls-18" d="M143.19,157.11a12.79,12.79,0,0,1-.62-1.73l38.57-9.21,15.46,10.19a10.6,10.6,0,0,1-1.33,4.13c-3.56.43-8.66-.14-14.33-4.46C180.94,156,166,167.56,143.19,157.11Z"/><path class="cls-19" d="M132.13,68.29s-17.5-4.46-9.75-18.19,19.72-5.49,23.26,3.7Z"/><path class="cls-20" d="M142.14,55.71c-2-3.64-5-5.89-8-6.13-2.7-.21-4.08.69-6.24,4.51-1.54,2.74-1.86,4.49-1,6.38a10.13,10.13,0,0,0,5.63,5.27Z"/><path class="cls-21" d="M194.87,67.81s15.77-8.8,4.76-20.08-20.47-.25-21.54,9.54Z"/><path class="cls-22" d="M191.64,65.27c2-1.52,5.11-3.53,5.51-6.34.29-2-.63-4.12-2.83-6.36s-3.86-3.47-5.8-3.62c-4-.32-6.88,3.64-8.1,8.44Z"/><path class="cls-8" d="M170.8,55.43s-1.56-.74-1-2.07,3.92-4.53,3.92-4.53-6,2.65-6.16,5.09-2,0-1.58-1.39.73-4.94,3.94-8.07-4,2.22-6,7.48-1.68-.14-2.07-.59-1.56-8-4.45-8.89,3.61,1.38,1.32,8.89S162.22,60,162.22,60,172.55,63.08,170.8,55.43Z"/><path class="cls-23" d="M129.07,79.72C118.52,130.2,165.2,114.3,185.69,116s21.29-9.54,17.62-30.28C199.08,61.86,180.77,53,156.78,52.54,136.22,52.15,133.34,59.26,129.07,79.72Z"/><path class="cls-24" d="M170.1,77.84a4.13,4.13,0,1,0-4,4.25A4.11,4.11,0,0,0,170.1,77.84Z"/><path class="cls-9" d="M180,78.13a3.4,3.4,0,1,0-3.26,3.5A3.39,3.39,0,0,0,180,78.13Z"/><path class="cls-25" d="M173.43,78.88A2.66,2.66,0,1,0,176,76.1,2.66,2.66,0,0,0,173.43,78.88Z"/><path class="cls-25" d="M163.09,78.71a3.24,3.24,0,1,0,3.11-3.37A3.25,3.25,0,0,0,163.09,78.71Z"/><path class="cls-7" d="M163.59,78.23a1.56,1.56,0,1,0,1.49-1.62A1.57,1.57,0,0,0,163.59,78.23Z"/><path class="cls-7" d="M173.84,78.48a1.28,1.28,0,0,0,1.33,1.23,1.29,1.29,0,1,0-.11-2.57A1.28,1.28,0,0,0,173.84,78.48Z"/><path class="cls-25" d="M163,67.22a109.05,109.05,0,0,1,17.83,2S171.8,65.46,163,67.22Z"/><path class="cls-26" d="M185.4,99.33s24.94,1.55,33.1,22.94-14.15,44.19-29.08,36c0,0-5.48-2.79-8.14-7.6,0,0-7.78,13.24-34,8s-20.64-41-2.1-50.41S185.4,99.33,185.4,99.33Z"/><path class="cls-16" d="M150.37,125.55a1.08,1.08,0,1,0,.17-2.16,1.08,1.08,0,1,0-.17,2.16Z"/><path class="cls-16" d="M160.56,142a.88.88,0,1,0-.81-1,.88.88,0,0,0,.81,1Z"/><path class="cls-16" d="M156,133a.88.88,0,1,0-.8-1,.88.88,0,0,0,.8,1Z"/><path class="cls-16" d="M145.29,135a.88.88,0,1,0-.81-.95.89.89,0,0,0,.81.95Z"/><path class="cls-16" d="M202.06,123.72h.15a1.09,1.09,0,0,0,0-2.17h-.15a1.09,1.09,0,0,0,0,2.17Z"/><path class="cls-16" d="M201.05,134.12h.13a.88.88,0,0,0,0-1.76h-.13a.93.93,0,0,0-.6.29.84.84,0,0,0-.22.64.87.87,0,0,0,.8.82Z"/><path class="cls-16" d="M166.42,132.69a.88.88,0,1,0-.81-.95.88.88,0,0,0,.81.95Z"/><path class="cls-16" d="M159.45,119.84a.88.88,0,1,0-.8-1,.87.87,0,0,0,.8,1Z"/><path class="cls-16" d="M198.43,147.07a.9.9,0,0,0,.95-.81.88.88,0,0,0-1.76-.14.9.9,0,0,0,.81.95Z"/><path class="cls-16" d="M191.41,133.25h.12a.88.88,0,0,0,.83-.93.87.87,0,0,0-.8-.82h-.13a.82.82,0,0,0-.6.29.84.84,0,0,0-.22.64.87.87,0,0,0,.8.82Z"/><path class="cls-16" d="M207.55,140.42h.12a.88.88,0,0,0,0-1.76h-.12a.88.88,0,0,0,0,1.76Z"/><path class="cls-16" d="M212,129.38h.13a.88.88,0,0,0,0-1.76H212a.88.88,0,0,0-.83.93.9.9,0,0,0,.8.83Z"/><path class="cls-27" d="M181.56,102.82c-20.31.39-33.11,4.31-41.24,8.72a23.85,23.85,0,0,1,4.86-3.28c18.55-9.38,40.22-8.93,40.22-8.93s23.26,1.45,32.2,20.82h0S205.09,102.38,181.56,102.82Z"/><path class="cls-28" d="M185,116.14s19.9-17-.72-21.3-21,7.16-21,7.16S179.65,108.51,185,116.14Z"/><path class="cls-29" d="M174.86,97.62c-.1,1.3,3,2.6,6.88,2.92s7.16-.49,7.26-1.79-3-2.6-6.88-2.92S175,96.32,174.86,97.62Z"/><path class="cls-30" d="M163.37,101.47a3.93,3.93,0,0,1,1.8.21,43,43,0,0,1,10.65,4.06,51,51,0,0,1,5.86,4.69c1.56,1.64,3.45,3.32,5.78,1.65a20.23,20.23,0,0,0,4.71-6,19.82,19.82,0,0,0,1.47-3.13c-.38,6.17-8.62,13.23-8.62,13.23C179.65,108.51,163.3,102,163.3,102A4.57,4.57,0,0,1,163.37,101.47Z"/></g></g></svg>