<svg xmlns="http://www.w3.org/2000/svg" xmlns:xlink="http://www.w3.org/1999/xlink" viewBox="0 0 110.11 168.92"><defs><style>.cls-1{fill:url(#radial-gradient);}.cls-2{fill:url(#linear-gradient);}.cls-3{fill:url(#radial-gradient-2);}.cls-4{fill:url(#radial-gradient-3);}.cls-5{fill:url(#linear-gradient-2);}.cls-6{fill:#78573e;}.cls-7{fill:url(#linear-gradient-3);}.cls-8{fill:url(#radial-gradient-4);}.cls-9{fill:#78614e;}.cls-10{fill:#6b5647;}.cls-11{fill:url(#linear-gradient-4);}.cls-12{fill:#c49a7a;}.cls-13{fill:#1a1a1a;}.cls-14{fill:url(#linear-gradient-5);}.cls-15{fill:url(#linear-gradient-6);}.cls-16{fill:#76645c;}.cls-17{fill:#fff;}.cls-18{fill:#c6a083;}.cls-19{fill:#ddc6b5;}.cls-20{fill:#635042;}.cls-21{fill:#d5ac8a;}.cls-22{fill:url(#radial-gradient-5);}.cls-23{fill:url(#linear-gradient-7);}</style><radialGradient id="radial-gradient" cx="639.66" cy="270.58" r="28.96" gradientTransform="matrix(-0.99, 0.1, 0.1, 0.99, 634.9, -224.85)" gradientUnits="userSpaceOnUse"><stop offset="0.3" stop-color="#31271f"/><stop offset="0.64" stop-color="#29221d"/><stop offset="1" stop-color="#1a1a1a"/></radialGradient><linearGradient id="linear-gradient" x1="-1225.94" y1="329.09" x2="-1225.94" y2="308.6" gradientTransform="matrix(-0.99, 0.1, 0.1, 0.99, -1216.05, -30.41)" gradientUnits="userSpaceOnUse"><stop offset="0.11" stop-color="#a08168"/><stop offset="0.17" stop-color="#ae8c71"/><stop offset="0.29" stop-color="#c39e7f"/><stop offset="0.4" stop-color="#d1a887"/><stop offset="0.51" stop-color="#d5ac8a"/></linearGradient><radialGradient id="radial-gradient-2" cx="1524.44" cy="294.23" r="12.95" gradientTransform="matrix(-0.99, 0.1, 0.1, 0.99, 1580.57, -324.19)" xlink:href="#radial-gradient"/><radialGradient id="radial-gradient-3" cx="197.71" cy="294.81" r="12.95" gradientTransform="translate(-164.83 -141.37) rotate(-6)" xlink:href="#radial-gradient"/><linearGradient id="linear-gradient-2" x1="194.45" y1="320.38" x2="194.45" y2="311.55" gradientTransform="translate(-164.83 -141.37) rotate(-6)" gradientUnits="userSpaceOnUse"><stop offset="0.16" stop-color="#a08168"/><stop offset="0.24" stop-color="#ae8c71"/><stop offset="0.4" stop-color="#c39e7f"/><stop offset="0.56" stop-color="#d1a887"/><stop offset="0.7" stop-color="#d5ac8a"/></linearGradient><linearGradient id="linear-gradient-3" x1="233.93" y1="320.38" x2="233.93" y2="311.55" xlink:href="#linear-gradient-2"/><radialGradient id="radial-gradient-4" cx="937.31" cy="-2554.58" r="31.96" gradientTransform="matrix(-0.7, -0.9, 0.71, -0.54, 2524.03, -458.82)" xlink:href="#radial-gradient"/><linearGradient id="linear-gradient-4" x1="-1791.17" y1="-167.66" x2="-1779.03" y2="-154.18" gradientTransform="matrix(-0.69, -0.73, -0.73, 0.69, -1280.05, -1165.57)" gradientUnits="userSpaceOnUse"><stop offset="0" stop-color="#e9c09b"/><stop offset="1" stop-color="#c49a7a"/></linearGradient><linearGradient id="linear-gradient-5" x1="-2628.92" y1="-1155.07" x2="-2617.36" y2="-1142.23" gradientTransform="matrix(0.6, -0.8, 0.8, 0.6, 2514.28, -1371.79)" xlink:href="#linear-gradient-4"/><linearGradient id="linear-gradient-6" x1="184.21" y1="203.29" x2="184.21" y2="167.82" gradientTransform="translate(-164.83 -141.37) rotate(-6)" gradientUnits="userSpaceOnUse"><stop offset="0" stop-color="#e9c09b"/><stop offset="1" stop-color="#fcd9b0"/></linearGradient><radialGradient id="radial-gradient-5" cx="212.54" cy="271.14" r="28.96" gradientTransform="translate(-164.83 -141.37) rotate(-6)" xlink:href="#radial-gradient"/><linearGradient id="linear-gradient-7" x1="207.95" y1="329.58" x2="207.95" y2="309.1" gradientTransform="translate(-164.83 -141.37) rotate(-6)" xlink:href="#linear-gradient"/></defs><g id="katman_2" data-name="katman 2"><g id="Calque_1" data-name="Calque 1"><path class="cls-1" d="M29.36,71.49s-11.81,36,7.48,77.35l-9.48,2.88s-13-38.62-1.81-80.45C25.55,71.27,27.09,69.21,29.36,71.49Z"/><path class="cls-2" d="M30.14,159.23c-3.8-1.93-2.94-7.49-2.94-7.49s2.53-4.25,9.48-2.88c0,0,13.43-1.26,12.08,6,0,0,4.5,10.35-3.31,8.32,0,0,.15,6.53-6,3.19,0,0-3.12,5.45-6.84.44,0,0-5.66,6-8.88-2.77-.06-.16-.11-.31-.16-.47C22.29,157,30.14,159.23,30.14,159.23Z"/><path class="cls-3" d="M91.43,110.61s12.85,18.47,8.07,34.54l-6.78.72s6.2-17.8-3.61-34.34C89.11,111.53,89.33,109.76,91.43,110.61Z"/><path class="cls-4" d="M62.79,113.62s-8.72,20.74-.72,35.46l6.79-.71s-9.77-16.12-3.6-34.34C65.26,114,64.68,112.35,62.79,113.62Z"/><path class="cls-5" d="M62.07,149.08s-7.84-2.55-9.4,3.07,4.49,3,4.49,3,1.73,2.37,5.52-.21c0,0,1.87,3.55,5,.35,0,0,6-2.2,1.14-6.88C68.86,148.37,65,146.7,62.07,149.08Z"/><path class="cls-6" d="M57.22,150.21c-1.47,1.11-.77,4.09-.49,5.07l.43-.17a6.79,6.79,0,0,1,.32-4.32c.81-1.45,4.21-1.3,4.21-1.3S59,148.86,57.22,150.21Z"/><path class="cls-6" d="M65.28,149s-5.92,0-2.78,6l.18-.11S60.51,149.76,65.28,149Z"/><path class="cls-7" d="M99.61,145.14s7.14-4.12,9.84,1.05-3.78,3.83-3.78,3.83-1.2,2.67-5.45.93c0,0-1.08,3.87-4.85,1.4,0,0-6.37-.9-2.55-6.49C92.82,145.86,96.23,143.42,99.61,145.14Z"/><path class="cls-6" d="M104.59,145.23c1.67.79,1.61,3.84,1.54,4.86-.27,0-.44-.07-.46-.07a6.78,6.78,0,0,0-1.22-4.17c-1.09-1.25-4.38-.4-4.38-.4S102.57,144.28,104.59,145.23Z"/><path class="cls-6" d="M96.47,145.73s5.78-1.22,4,5.3l-.2-.08S101.29,145.48,96.47,145.73Z"/><path class="cls-8" d="M54.42,109.17c8.36,15.77,18.13,22.64,32.7,8.07A34.08,34.08,0,0,0,97,98c1.41-10,2-19.91-11.39-33.88A36.52,36.52,0,0,0,60.68,51.66c-10.83-.76-23.35,4.09-32.59,16.17-3.83,4.82,2.34,10.66,8.84,18.61A267.92,267.92,0,0,1,54.42,109.17Z"/><path class="cls-9" d="M34.93,69c-1.17,4.44,1.6,10,7.24,16.92,6.74,7.64,10.91,15,14.59,20.38,5.14,9.69,7.94,13.93,14.92,14,2.84-.73,5.49-2.49,6.53-9.4,3-19.64-18.12-43.37-18.12-43.37C51.19,59.31,44.81,63.63,34.93,69Z"/><path class="cls-10" d="M61.33,69,38,80.15a51.89,51.89,0,0,0,3.27,4.59c4.24,2.05,10.19,3.59,15.26,0a16.43,16.43,0,0,0,7-13C62.64,70.59,61.9,69.66,61.33,69Z"/><path class="cls-11" d="M58.93,29.93s14.38,3.28,13.87-9.59S60.5,9,54.51,14.36Z"/><path class="cls-12" d="M56.34,17.06c2.85-1.89,5.85-2.41,8.12-1.47,2,.85,2.7,2,2.85,5.6.1,2.57-.32,4-1.62,5A8.35,8.35,0,0,1,59.63,28Z"/><path class="cls-13" d="M62.22,38.36C64,50,54.37,60.54,42,61.85s-24.35-7-24.72-18.76C16,4.47,25.09,20.9,37.51,19.6S57.72,8.11,62.22,38.36Z"/><path class="cls-14" d="M19.38,32.13S6.1,36.73,5.26,24.49s10.47-12,16.7-7.56Z"/><path class="cls-12" d="M20.5,19.68c-2.89-1.49-5.78-1.68-7.83-.55-1.85,1-2.36,2.19-2.12,5.59.16,2.45.71,3.72,2,4.6a7.92,7.92,0,0,0,5.92,1Z"/><path class="cls-13" d="M35.34,7.4s.84-.43.53-1.15a13.39,13.39,0,0,0-2.2-2.43S37,5.2,37.11,6.53s1.11,0,.85-.79a8.33,8.33,0,0,0-2.27-4.36c-1.8-1.67,2.21,1.16,3.39,4S40,5.3,40.21,5,41,.67,42.53.12s-2,.79-.61,4.88S40.1,9.79,40.1,9.79,34.48,11.61,35.34,7.4Z"/><path class="cls-15" d="M58.52,20.14C65,47.64,39.21,39.57,28,40.75S16.21,35.81,18,24.4c2-13.1,11.9-18.19,25-18.77C54.24,5.13,55.91,9,58.52,20.14Z"/><path class="cls-16" d="M36.44,23.59a2.27,2.27,0,1,1,2.23,2.28A2.25,2.25,0,0,1,36.44,23.59Z"/><path class="cls-12" d="M31,23.88a1.85,1.85,0,0,1,1.89-1.81A1.85,1.85,0,1,1,31,23.88Z"/><path d="M34.63,24.2a1.46,1.46,0,1,1-1.44-1.48A1.46,1.46,0,0,1,34.63,24.2Z"/><path d="M40.29,24a1.78,1.78,0,1,1-1.75-1.8A1.79,1.79,0,0,1,40.29,24Z"/><path class="cls-17" d="M40,23.72a.86.86,0,1,1-.84-.87A.85.85,0,0,1,40,23.72Z"/><path class="cls-17" d="M34.4,24a.7.7,0,1,1-.69-.71A.69.69,0,0,1,34.4,24Z"/><path d="M40.19,17.68A60.18,60.18,0,0,0,30.45,19,19.08,19.08,0,0,1,40.19,17.68Z"/><path class="cls-13" d="M58.52,20.14C55.91,9,54.24,5.13,43,5.63c-13.13.58-23,5.67-25,18.77-.81,5.28-1.11,9.43-.1,12.24-.79-6.9.28-17.5,4.72-21,6.53-5.07,12.21-1.29,12.21-1.29s4.71-3.69,12.68-2.08C58.28,14.5,57.84,34.7,57.89,35.08,59.71,32,60.19,27.23,58.52,20.14Z"/><path class="cls-13" d="M56.9,25s2,9.13-2.78,13.79L57.42,42l3.19-6.42.47-3.74L58.33,19.31S57.28,18.44,56.9,25Z"/><path class="cls-18" d="M60.78,74.1c.58,5.55-4.38,10.62-11.08,11.32S37.08,82.2,36.5,76.65,40.88,66,47.58,65.33,60.2,68.55,60.78,74.1Z"/><polygon class="cls-19" points="49.52 84.5 48.06 83.5 48.14 83.36 49.6 84.36 49.52 84.5 49.52 84.5"/><polygon class="cls-19" points="48.28 81.66 48.56 79.9 48.72 79.92 48.44 81.67 48.28 81.66 48.28 81.66"/><polygon class="cls-19" points="56.2 78.59 54.58 78.55 54.59 78.39 56.2 78.43 56.2 78.59 56.2 78.59"/><polygon class="cls-19" points="61.2 76.44 60.03 75.32 60.14 75.2 61.31 76.32 61.2 76.44 61.2 76.44"/><polygon class="cls-19" points="54.34 82.93 54.26 82.79 55.64 81.9 55.72 82.04 54.34 82.93 54.34 82.93"/><polygon class="cls-19" points="42.41 83.4 41.03 84.5 40.93 84.38 42.31 83.28 42.41 83.4 42.41 83.4"/><path class="cls-20" d="M39.65,81.81c4.84,0,13.72-.65,20.58-10.5a8.61,8.61,0,0,0-.56-1.19L38.34,80.47A10.35,10.35,0,0,0,39.65,81.81Z"/><path class="cls-21" d="M67.13,54.39c1.41,13.48-12.45,26-31,27.92S1.51,74.91.1,61.43s12.44-26,31-27.91S65.71,40.92,67.13,54.39Z"/><path d="M25.12,42.72c.39,1.57-.29,4-1.64,4.37s-2.87-1.59-3.26-3.16A2.75,2.75,0,0,1,22,40.47,2.75,2.75,0,0,1,25.12,42.72Z"/><path d="M27.81,41.68c-.41,1.79.72,4.42,2.26,4.77s2.89-1.72,3.3-3.51a3.1,3.1,0,0,0-2-3.87A3.12,3.12,0,0,0,27.81,41.68Z"/><path class="cls-18" d="M55.37,73c-8.92,6.51-33,10.65-46.46.68s-4.86-26-4.85-26a19.91,19.91,0,0,0-4,13.78C1.51,74.91,17.66,84.25,36.17,82.31c16.53-1.74,29.35-11.89,30.9-23.64C64.33,65.06,61.9,68.21,55.37,73Z"/><path class="cls-13" d="M17.13,37.28l.83-.37a22.83,22.83,0,0,1-.35-5.21l-.42,1Z"/><path class="cls-22" d="M64.36,67.81s19,32.77,8.76,77.22l9.87.85S87.67,105.4,68,66.81C68,66.81,66.11,65.11,64.36,67.81Z"/><path class="cls-23" d="M81.67,153.82C85,151.14,83,145.88,83,145.88s-3.36-3.63-9.87-.85c0,0-13.4,1.56-10.58,8.37,0,0-2.25,11.06,5,7.45,0,0,1.21,6.42,6.54,1.88,0,0,4.18,4.68,6.78-1,0,0,6.78,4.71,8.11-4.55,0-.17,0-.33.06-.49C88.88,150,81.67,153.82,81.67,153.82Z"/></g></g></svg>