<svg xmlns="http://www.w3.org/2000/svg" xmlns:xlink="http://www.w3.org/1999/xlink" viewBox="0 0 221.22 203.34"><defs><style>.cls-1{fill:url(#radial-gradient);}.cls-2{fill:url(#radial-gradient-2);}.cls-3{fill:url(#linear-gradient);}.cls-4{fill:#73674b;}.cls-5{fill:url(#linear-gradient-2);}.cls-6{fill:url(#Nouvelle_nuance_de_dégradé_3);}.cls-7{fill:url(#Nouvelle_nuance_de_dégradé_3-2);}.cls-8{fill:url(#Nouvelle_nuance_de_dégradé_3-3);}.cls-9{fill:url(#Nouvelle_nuance_de_dégradé_3-4);}.cls-10{fill:url(#Nouvelle_nuance_de_dégradé_3-5);}.cls-11{fill:url(#Nouvelle_nuance_de_dégradé_3-6);}.cls-12{fill:url(#Nouvelle_nuance_de_dégradé_3-7);}.cls-13{fill:url(#Nouvelle_nuance_de_dégradé_3-8);}.cls-14{fill:url(#Nouvelle_nuance_de_dégradé_3-9);}.cls-15{fill:url(#radial-gradient-3);}.cls-16{fill:#feecc1;}.cls-17{fill:#fff;}.cls-18{fill:#fcae10;}.cls-19{fill:#f66508;}.cls-20{fill:#fcee21;}.cls-21{fill:url(#Nouvelle_nuance_de_dégradé_3-10);}.cls-22{fill:url(#Nouvelle_nuance_de_dégradé_3-11);}.cls-23{fill:url(#Nouvelle_nuance_de_dégradé_3-12);}.cls-24{fill:url(#Nouvelle_nuance_de_dégradé_3-13);}.cls-25{fill:url(#Nouvelle_nuance_de_dégradé_3-14);}.cls-26{fill:url(#linear-gradient-3);}.cls-27{fill:url(#linear-gradient-4);}.cls-28{fill:url(#radial-gradient-4);}.cls-29{fill:url(#radial-gradient-5);}.cls-30{fill:url(#linear-gradient-5);}.cls-31{fill:url(#linear-gradient-6);}.cls-32{fill:#bc973e;}.cls-33{fill:url(#linear-gradient-7);}.cls-34{fill:url(#linear-gradient-8);}.cls-35{fill:url(#linear-gradient-9);}.cls-36{fill:url(#linear-gradient-10);}.cls-37{fill:url(#linear-gradient-11);}.cls-38{fill:#76645c;}.cls-39{fill:url(#Nouvelle_nuance_de_dégradé_3-15);}.cls-40{fill:url(#Nouvelle_nuance_de_dégradé_3-16);}.cls-41{fill:url(#Nouvelle_nuance_de_dégradé_3-17);}.cls-42{fill:url(#Nouvelle_nuance_de_dégradé_3-18);}.cls-43{fill:url(#Nouvelle_nuance_de_dégradé_3-19);}.cls-44{fill:url(#Nouvelle_nuance_de_dégradé_3-20);}.cls-45{fill:url(#Nouvelle_nuance_de_dégradé_3-21);}.cls-46{fill:url(#Nouvelle_nuance_de_dégradé_3-22);}.cls-47{fill:url(#linear-gradient-12);}.cls-48{fill:#fddf97;}.cls-49{fill:#59503b;}.cls-50{fill:url(#Nouvelle_nuance_de_dégradé_3-23);}.cls-51{fill:url(#Nouvelle_nuance_de_dégradé_3-24);}.cls-52{fill:#8d712f;}.cls-53{fill:#fbc952;}.cls-54{fill:#613830;}.cls-55{fill:#9a6f66;}.cls-56{fill:#492a24;}.cls-57{fill:url(#Nouvelle_nuance_de_dégradé_3-25);}.cls-58{fill:url(#Nouvelle_nuance_de_dégradé_3-26);}.cls-59{fill:url(#Nouvelle_nuance_de_dégradé_3-27);}.cls-60{fill:url(#Nouvelle_nuance_de_dégradé_3-28);}.cls-61{fill:url(#Nouvelle_nuance_de_dégradé_3-29);}.cls-62{fill:url(#Nouvelle_nuance_de_dégradé_3-30);}.cls-63{fill:url(#Nouvelle_nuance_de_dégradé_3-31);}.cls-64{fill:url(#Nouvelle_nuance_de_dégradé_3-32);}.cls-65{fill:url(#Nouvelle_nuance_de_dégradé_3-33);}.cls-66{fill:url(#Nouvelle_nuance_de_dégradé_3-34);}.cls-67{fill:url(#Nouvelle_nuance_de_dégradé_3-35);}.cls-68{fill:url(#Nouvelle_nuance_de_dégradé_3-36);}.cls-69{fill:url(#Nouvelle_nuance_de_dégradé_3-37);}.cls-70{fill:url(#Nouvelle_nuance_de_dégradé_3-38);}.cls-71{fill:url(#Nouvelle_nuance_de_dégradé_3-39);}.cls-72{fill:url(#Nouvelle_nuance_de_dégradé_3-40);}.cls-73{fill:url(#Nouvelle_nuance_de_dégradé_3-41);}.cls-74{fill:url(#Nouvelle_nuance_de_dégradé_3-42);}.cls-75{fill:url(#Nouvelle_nuance_de_dégradé_3-43);}</style><radialGradient id="radial-gradient" cx="182.09" cy="110.07" r="38.03" gradientUnits="userSpaceOnUse"><stop offset="0" stop-color="#fcae10"/><stop offset="0.21" stop-color="#fba60f"/><stop offset="0.54" stop-color="#f98f0d"/><stop offset="0.96" stop-color="#f66908"/><stop offset="1" stop-color="#f66508"/></radialGradient><radialGradient id="radial-gradient-2" cx="131.51" cy="136.74" r="46.15" gradientUnits="userSpaceOnUse"><stop offset="0.51" stop-color="#f66508"/><stop offset="0.52" stop-color="#f66708"/><stop offset="0.82" stop-color="#f87e0b"/><stop offset="1" stop-color="#f9860c"/></radialGradient><linearGradient id="linear-gradient" x1="106.47" y1="200.21" x2="106.47" y2="191.16" gradientUnits="userSpaceOnUse"><stop offset="0" stop-color="#bfb191"/><stop offset="0.39" stop-color="#dfcfa9"/><stop offset="0.77" stop-color="#f6e4bb"/><stop offset="1" stop-color="#feecc1"/></linearGradient><linearGradient id="linear-gradient-2" x1="135.36" y1="200.45" x2="135.36" y2="191.4" xlink:href="#linear-gradient"/><linearGradient id="Nouvelle_nuance_de_dégradé_3" x1="138.21" y1="143.69" x2="162.1" y2="143.69" gradientUnits="userSpaceOnUse"><stop offset="0" stop-color="#982814"/><stop offset="1" stop-color="#73200e"/></linearGradient><linearGradient id="Nouvelle_nuance_de_dégradé_3-2" x1="155.46" y1="126.55" x2="166.07" y2="126.55" xlink:href="#Nouvelle_nuance_de_dégradé_3"/><linearGradient id="Nouvelle_nuance_de_dégradé_3-3" x1="125.51" y1="119.37" x2="146.13" y2="119.37" gradientTransform="matrix(0.99, 0.11, -0.11, 0.99, 29.95, -20.74)" xlink:href="#Nouvelle_nuance_de_dégradé_3"/><linearGradient id="Nouvelle_nuance_de_dégradé_3-4" x1="106.11" y1="167.25" x2="114.24" y2="167.25" xlink:href="#Nouvelle_nuance_de_dégradé_3"/><linearGradient id="Nouvelle_nuance_de_dégradé_3-5" x1="104.29" y1="176.52" x2="113.97" y2="176.52" xlink:href="#Nouvelle_nuance_de_dégradé_3"/><linearGradient id="Nouvelle_nuance_de_dégradé_3-6" x1="104.42" y1="185.84" x2="115.58" y2="185.84" xlink:href="#Nouvelle_nuance_de_dégradé_3"/><linearGradient id="Nouvelle_nuance_de_dégradé_3-7" x1="131.21" y1="167.31" x2="138.63" y2="167.31" xlink:href="#Nouvelle_nuance_de_dégradé_3"/><linearGradient id="Nouvelle_nuance_de_dégradé_3-8" x1="131.67" y1="176.54" x2="141.43" y2="176.54" xlink:href="#Nouvelle_nuance_de_dégradé_3"/><linearGradient id="Nouvelle_nuance_de_dégradé_3-9" x1="126.97" y1="185.86" x2="137.15" y2="185.86" xlink:href="#Nouvelle_nuance_de_dégradé_3"/><radialGradient id="radial-gradient-3" cx="88.87" cy="116.37" r="55.41" gradientUnits="userSpaceOnUse"><stop offset="0.51" stop-color="#f66508"/><stop offset="0.81" stop-color="#f87c0a"/><stop offset="1" stop-color="#f9840b"/></radialGradient><linearGradient id="Nouvelle_nuance_de_dégradé_3-10" x1="123.73" y1="130.91" x2="123.73" y2="73.48" xlink:href="#Nouvelle_nuance_de_dégradé_3"/><linearGradient id="Nouvelle_nuance_de_dégradé_3-11" x1="145.37" y1="134.03" x2="145.37" y2="90.22" xlink:href="#Nouvelle_nuance_de_dégradé_3"/><linearGradient id="Nouvelle_nuance_de_dégradé_3-12" x1="125.29" y1="162.16" x2="125.29" y2="115.12" xlink:href="#Nouvelle_nuance_de_dégradé_3"/><linearGradient id="Nouvelle_nuance_de_dégradé_3-13" x1="97.31" y1="117.98" x2="97.31" y2="70.09" xlink:href="#Nouvelle_nuance_de_dégradé_3"/><linearGradient id="Nouvelle_nuance_de_dégradé_3-14" x1="107.32" y1="162.65" x2="107.32" y2="106.39" xlink:href="#Nouvelle_nuance_de_dégradé_3"/><linearGradient id="linear-gradient-3" x1="86.63" y1="162.55" x2="86.63" y2="152.92" gradientUnits="userSpaceOnUse"><stop offset="0.01" stop-color="#feecc1"/><stop offset="1" stop-color="#bfb191"/></linearGradient><linearGradient id="linear-gradient-4" x1="65.41" y1="162.12" x2="65.41" y2="153.4" xlink:href="#linear-gradient-3"/><radialGradient id="radial-gradient-4" cx="78.96" cy="172.8" r="14.82" xlink:href="#radial-gradient-2"/><radialGradient id="radial-gradient-5" cx="53.79" cy="173.04" r="14.77" xlink:href="#radial-gradient-2"/><linearGradient id="linear-gradient-5" x1="49.35" y1="203.34" x2="49.35" y2="192.21" xlink:href="#linear-gradient"/><linearGradient id="linear-gradient-6" x1="83.54" y1="203.34" x2="83.54" y2="192.21" xlink:href="#linear-gradient"/><linearGradient id="linear-gradient-7" x1="-149.97" y1="1.06" x2="-135.99" y2="16.58" gradientTransform="matrix(-0.98, -0.19, -0.19, 0.98, -29.76, -24.89)" gradientUnits="userSpaceOnUse"><stop offset="0" stop-color="#fcae10"/><stop offset="1" stop-color="#f66508"/></linearGradient><linearGradient id="linear-gradient-8" x1="104.82" y1="17.49" x2="114.53" y2="28.27" gradientTransform="matrix(0.98, -0.22, 0.22, 0.98, -3.81, 15.04)" gradientUnits="userSpaceOnUse"><stop offset="0" stop-color="#f7931e"/><stop offset="1" stop-color="#fcae10"/></linearGradient><linearGradient id="linear-gradient-9" x1="30.22" y1="5.03" x2="44.19" y2="20.56" gradientTransform="matrix(1, -0.06, 0.06, 1, -2.3, 1.98)" xlink:href="#linear-gradient-7"/><linearGradient id="linear-gradient-10" x1="34.91" y1="9.9" x2="43.35" y2="19.29" gradientTransform="matrix(1, -0.06, 0.06, 1, -2.3, 1.98)" gradientUnits="userSpaceOnUse"><stop offset="0" stop-color="#fcae10"/><stop offset="1" stop-color="#f7931e"/></linearGradient><linearGradient id="linear-gradient-11" x1="66.58" y1="92.64" x2="66.58" y2="7.55" gradientUnits="userSpaceOnUse"><stop offset="0" stop-color="#f66508"/><stop offset="1" stop-color="#fcae10"/></linearGradient><linearGradient id="Nouvelle_nuance_de_dégradé_3-15" x1="12.33" y1="46.44" x2="35.81" y2="46.44" xlink:href="#Nouvelle_nuance_de_dégradé_3"/><linearGradient id="Nouvelle_nuance_de_dégradé_3-16" x1="20.33" y1="32.74" x2="38.07" y2="32.74" xlink:href="#Nouvelle_nuance_de_dégradé_3"/><linearGradient id="Nouvelle_nuance_de_dégradé_3-17" x1="31.95" y1="24.44" x2="43.76" y2="24.44" xlink:href="#Nouvelle_nuance_de_dégradé_3"/><linearGradient id="Nouvelle_nuance_de_dégradé_3-18" x1="91.87" y1="47.23" x2="121.4" y2="47.23" xlink:href="#Nouvelle_nuance_de_dégradé_3"/><linearGradient id="Nouvelle_nuance_de_dégradé_3-19" x1="90.33" y1="31.04" x2="117.33" y2="31.04" xlink:href="#Nouvelle_nuance_de_dégradé_3"/><linearGradient id="Nouvelle_nuance_de_dégradé_3-20" x1="83.87" y1="19.95" x2="105.42" y2="19.95" xlink:href="#Nouvelle_nuance_de_dégradé_3"/><linearGradient id="Nouvelle_nuance_de_dégradé_3-21" x1="76.01" y1="13.31" x2="84.18" y2="13.31" xlink:href="#Nouvelle_nuance_de_dégradé_3"/><linearGradient id="Nouvelle_nuance_de_dégradé_3-22" x1="53.34" y1="14.89" x2="58.6" y2="14.89" xlink:href="#Nouvelle_nuance_de_dégradé_3"/><linearGradient id="linear-gradient-12" x1="63.06" y1="119.44" x2="63.06" y2="87.61" xlink:href="#linear-gradient-11"/><linearGradient id="Nouvelle_nuance_de_dégradé_3-23" x1="64.18" y1="106.75" x2="100.53" y2="106.75" xlink:href="#Nouvelle_nuance_de_dégradé_3"/><linearGradient id="Nouvelle_nuance_de_dégradé_3-24" x1="22.86" y1="103.16" x2="50" y2="103.16" xlink:href="#Nouvelle_nuance_de_dégradé_3"/><linearGradient id="Nouvelle_nuance_de_dégradé_3-25" x1="55.07" y1="114.31" x2="59.51" y2="114.31" xlink:href="#Nouvelle_nuance_de_dégradé_3"/><linearGradient id="Nouvelle_nuance_de_dégradé_3-26" x1="50.36" y1="185.91" x2="60.82" y2="185.91" xlink:href="#Nouvelle_nuance_de_dégradé_3"/><linearGradient id="Nouvelle_nuance_de_dégradé_3-27" x1="48.88" y1="176.33" x2="58.89" y2="176.33" xlink:href="#Nouvelle_nuance_de_dégradé_3"/><linearGradient id="Nouvelle_nuance_de_dégradé_3-28" x1="52.18" y1="166.34" x2="60.57" y2="166.34" xlink:href="#Nouvelle_nuance_de_dégradé_3"/><linearGradient id="Nouvelle_nuance_de_dégradé_3-29" x1="74.78" y1="166.37" x2="82.85" y2="166.37" xlink:href="#Nouvelle_nuance_de_dégradé_3"/><linearGradient id="Nouvelle_nuance_de_dégradé_3-30" x1="76.14" y1="176.33" x2="84.85" y2="176.33" xlink:href="#Nouvelle_nuance_de_dégradé_3"/><linearGradient id="Nouvelle_nuance_de_dégradé_3-31" x1="72.83" y1="185.92" x2="82.86" y2="185.92" xlink:href="#Nouvelle_nuance_de_dégradé_3"/><linearGradient id="Nouvelle_nuance_de_dégradé_3-32" x1="155.46" y1="86.42" x2="161" y2="86.42" xlink:href="#Nouvelle_nuance_de_dégradé_3"/><linearGradient id="Nouvelle_nuance_de_dégradé_3-33" x1="167.75" y1="81.6" x2="170.63" y2="81.6" xlink:href="#Nouvelle_nuance_de_dégradé_3"/><linearGradient id="Nouvelle_nuance_de_dégradé_3-34" x1="172.84" y1="92.72" x2="179.58" y2="92.72" xlink:href="#Nouvelle_nuance_de_dégradé_3"/><linearGradient id="Nouvelle_nuance_de_dégradé_3-35" x1="173.97" y1="104.74" x2="181.99" y2="104.74" xlink:href="#Nouvelle_nuance_de_dégradé_3"/><linearGradient id="Nouvelle_nuance_de_dégradé_3-36" x1="171.79" y1="117.82" x2="179.58" y2="117.82" xlink:href="#Nouvelle_nuance_de_dégradé_3"/><linearGradient id="Nouvelle_nuance_de_dégradé_3-37" x1="173.97" y1="131.58" x2="181.51" y2="131.58" xlink:href="#Nouvelle_nuance_de_dégradé_3"/><linearGradient id="Nouvelle_nuance_de_dégradé_3-38" x1="181.81" y1="142.38" x2="188.02" y2="142.38" xlink:href="#Nouvelle_nuance_de_dégradé_3"/><linearGradient id="Nouvelle_nuance_de_dégradé_3-39" x1="199.01" y1="140.84" x2="202.06" y2="140.84" xlink:href="#Nouvelle_nuance_de_dégradé_3"/><linearGradient id="Nouvelle_nuance_de_dégradé_3-40" x1="207.8" y1="90.15" x2="216.96" y2="90.15" xlink:href="#Nouvelle_nuance_de_dégradé_3"/><linearGradient id="Nouvelle_nuance_de_dégradé_3-41" x1="214.3" y1="103.02" x2="221.05" y2="103.02" xlink:href="#Nouvelle_nuance_de_dégradé_3"/><linearGradient id="Nouvelle_nuance_de_dégradé_3-42" x1="212.29" y1="116.51" x2="219.27" y2="116.51" xlink:href="#Nouvelle_nuance_de_dégradé_3"/><linearGradient id="Nouvelle_nuance_de_dégradé_3-43" x1="209.64" y1="132.75" x2="217" y2="132.75" xlink:href="#Nouvelle_nuance_de_dégradé_3"/></defs><g id="katman_2" data-name="katman 2"><g id="Calque_1" data-name="Calque 1"><path class="cls-1" d="M194.08,147a32.38,32.38,0,0,1-8.91-1.29c-5.82-1.64-9.95-4.63-11.95-8.63-2.8-5.59-2.05-12.09-1.39-17.83l.09-.79c.16-1.36.33-2.72.5-4.08a104.14,104.14,0,0,0,1.13-14.95c-.09-4.8-.45-9.69-3.67-11.92a5.2,5.2,0,0,0-3.07-.91,14.86,14.86,0,0,0-7,2.33A33.7,33.7,0,0,0,150.26,97a4.52,4.52,0,0,1-3.53,1.86h0a3.71,3.71,0,0,1-3.37-2.12A4.45,4.45,0,0,1,144.1,92a41.25,41.25,0,0,1,6.6-6.53c4.35-3.47,10.87-7.6,17.24-7.6a13.05,13.05,0,0,1,9.87,4.36c3.77,4,4.2,10.08,4.3,15.41A114.92,114.92,0,0,1,181,113.75c-.12,1.07-.25,2.14-.38,3.22l-.14,1.22a50.54,50.54,0,0,0-.52,9.75,9.5,9.5,0,0,0,1.64,5.06c2.55,3.38,7.57,4.57,11.33,5a28,28,0,0,0,3.07.18,13.42,13.42,0,0,0,8.14-2.23,17.29,17.29,0,0,0,5.79-8.33,53,53,0,0,0,2.86-14.23,49.07,49.07,0,0,0-1-14.12,53.3,53.3,0,0,0-8.06-17.48c-5.38-7.61,2.76-12.62,8.45-4.26,6.44,9.47,10,21.95,8.94,35.84-.54,7.45-2,18.21-8.66,25.69a23.65,23.65,0,0,1-18.3,7.93Z"/><path class="cls-2" d="M129.31,81.38s35.88,3.87,36.74,40.83-23.12,39.94-23.12,39.94l-3.42,30L126,191.86l6.55-29.32s-9.16-10.72-18.81-1.42l2.16,30.74H104.2l.19-30.92-6.53-8.27S88.55,86.62,129.31,81.38Z"/><path class="cls-3" d="M104.3,191.54s-9-.34-7,6.42a5.72,5.72,0,0,0,4.86,0s1.76,3.34,7,.51c0,0,1,3.73,6.78.26l-.08-7.19S109,190.69,104.3,191.54Z"/><path class="cls-4" d="M102.16,198s-2-4.83,3.31-5.31C105.47,192.65,101.16,193.13,102.16,198Z"/><path class="cls-4" d="M109.14,198.47s-1.78-4.47,2.46-5.82C111.6,192.65,108.17,193.92,109.14,198.47Z"/><path class="cls-5" d="M137.53,191.78s9-.34,7,6.42a5.77,5.77,0,0,1-4.86,0s-1.77,3.34-7,.51c0,0-1,3.73-6.78.26l.08-7.19S132.84,190.93,137.53,191.78Z"/><path class="cls-4" d="M139.67,198.2s2.05-4.83-3.31-5.31C136.36,192.89,140.67,193.37,139.67,198.2Z"/><path class="cls-4" d="M132.69,198.71s1.78-4.47-2.46-5.82C130.23,192.89,133.66,194.16,132.69,198.71Z"/><path class="cls-6" d="M144.82,140.55s8.84,3.88,17.28,0c0,0-6.48,10.25-23.89,4.54Z"/><path class="cls-7" d="M155.46,128.83s4.31,1.09,10.51-.89c.06-1.28.1-2.6.1-4A31.8,31.8,0,0,1,155.46,128.83Z"/><path class="cls-8" d="M146.7,109.18s7.43,5,15.42,4.07c0,0-4.63,3.85-20.92,1.53Z"/><polygon class="cls-9" points="114.24 168.53 114.06 165.98 106.11 167.56 114.24 168.53"/><polygon class="cls-10" points="104.3 175.24 104.29 177.79 113.97 176.67 104.3 175.24"/><polygon class="cls-11" points="115.58 187.59 115.34 184.09 104.42 185.61 115.58 187.59"/><polygon class="cls-12" points="131.71 166.19 131.21 168.44 138.63 167.56 131.71 166.19"/><polygon class="cls-13" points="141.43 175.26 131.68 176.7 141.14 177.81 141.43 175.26"/><polygon class="cls-14" points="127.67 184.29 126.97 187.42 137.15 185.61 127.67 184.29"/><path class="cls-15" d="M62.24,72.09c-22.59,0-39.95,22.74-36,54.34,1.55,12.52,9.36,20.12,16.58,25.76,9.81,7.67,17.31,10.91,40.84,9.68,61.34,5.2,78-15.3,63.65-65.33C138.59,66.33,79.35,68.49,62.24,72.09Z"/><path class="cls-16" d="M86.88,142.83c.46-21.77,2.24-68.91-24.26-66.55S34.68,98,36.21,116.37c1.16,13.88,4.54,30.32,17.3,42.45,6.71,2.81,15.18,3.83,30.11,3.05,2.45.21,8.43.37,10.74.5C91.27,159.78,86.63,154.61,86.88,142.83Z"/><polygon class="cls-17" points="26.27 126.51 26.13 126.34 27.44 125.28 27.58 125.46 26.27 126.51 26.27 126.51"/><polygon class="cls-17" points="35.2 116.54 33.85 115.28 34.01 115.12 35.35 116.38 35.2 116.54 35.2 116.54"/><polygon class="cls-18" points="64.56 126.01 62.23 125.48 62.29 125.26 64.61 125.79 64.56 126.01 64.56 126.01"/><polygon class="cls-17" points="106.85 94.49 106.81 94.27 108.88 93.89 108.92 94.11 106.85 94.49 106.85 94.49"/><polygon class="cls-17" points="51.62 101.65 50 101.65 50 101.43 51.62 101.43 51.62 101.65 51.62 101.65"/><polygon class="cls-18" points="92.43 113.67 92.37 113.46 94.34 112.92 94.39 113.13 92.43 113.67 92.43 113.67"/><polygon class="cls-18" points="99.24 123.91 97.01 123.26 97.08 123.04 99.31 123.69 99.24 123.91 99.24 123.91"/><polygon class="cls-18" points="100.77 140.55 98.14 140.17 98.17 139.95 100.8 140.33 100.77 140.55 100.77 140.55"/><polygon class="cls-19" points="129.41 134.85 129.27 134.68 131.05 133.22 131.19 133.39 129.41 134.85 129.41 134.85"/><polygon class="cls-17" points="141.47 146.43 138.64 146.43 138.64 146.21 141.47 146.21 141.47 146.43 141.47 146.43"/><polygon class="cls-17" points="118.78 152.11 117.44 150.31 117.61 150.17 118.96 151.98 118.78 152.11 118.78 152.11"/><polygon class="cls-19" points="44.14 121.47 44.05 121.26 46.68 120.12 46.77 120.33 44.14 121.47 44.14 121.47"/><polygon class="cls-20" points="40.68 108.01 38.07 107.72 38.1 107.5 40.7 107.79 40.68 108.01 40.68 108.01"/><polygon class="cls-18" points="94.29 100.02 92.33 98.39 92.47 98.22 94.44 99.84 94.29 100.02 94.29 100.02"/><polygon class="cls-19" points="145.57 124.51 143.9 122.59 144.07 122.44 145.74 124.36 145.57 124.51 145.57 124.51"/><path class="cls-21" d="M126.7,76.58a71.36,71.36,0,0,0-9.6-3.1c6,7.9,12.36,32.06,8.81,57.43C125.91,130.91,135.37,108,126.7,76.58Z"/><path class="cls-22" d="M149.14,103.64c-.55-2.3-1.17-4.66-1.87-7.1a25,25,0,0,0-2.81-6.32c1.76,8.15,4.21,26.13-3,43.81C141.47,134,150.39,120.24,149.14,103.64Z"/><path class="cls-23" d="M121,161c16.51-14.62,17.21-45.86,17.21-45.86-4.34,29.89-18.19,42.34-25.84,47C115.44,161.89,118.31,161.49,121,161Z"/><path class="cls-24" d="M100,70.68c-3.94-.36-7.85-.54-11.61-.59C105.83,82.79,105.25,118,105.25,118,108.47,94.32,103,77.71,100,70.68Z"/><path class="cls-25" d="M96.79,162.61q3.81.09,7.34,0c5-7.27,18.28-29.67,12.12-56.23C116.25,106.39,119.57,139.42,96.79,162.61Z"/><polygon class="cls-17" points="39.89 136.28 39.76 136.1 41.5 134.85 41.63 135.03 39.89 136.28 39.89 136.28"/><polygon class="cls-17" points="78.2 149.7 78.02 149.56 79.2 148 79.38 148.13 78.2 149.7 78.2 149.7"/><polygon class="cls-17" points="61.2 150.32 60.98 150.28 61.41 148.04 61.63 148.08 61.2 150.32 61.2 150.32"/><polygon class="cls-20" points="45.44 146.32 45.22 146.28 45.68 143.87 45.9 143.91 45.44 146.32 45.44 146.32"/><path class="cls-26" d="M83.66,152.92c-1.76,3.17-5.15,1.08-5.15,1.08l2.11,8L82,162c.55,0,1.09,0,1.66-.08q5.84.49,11.13.68C86.14,159.57,83.66,152.92,83.66,152.92Z"/><path class="cls-27" d="M76.84,162.11c-12.34-1.42-16.45-8.71-16.45-8.71-4.85,1.85-6.29,3.91-6.41,5.62C59.51,161.24,66.3,162.26,76.84,162.11Z"/><path class="cls-28" d="M76.13,153.8a13.18,13.18,0,0,0,7.53-.88l1.92,39.76H72.33Z"/><path class="cls-29" d="M52.39,153.8a8.67,8.67,0,0,0,8-.4l.5,39.28H46.69Z"/><path class="cls-30" d="M46.69,192.68s-11.07-.42-8.62,7.89a7.08,7.08,0,0,0,6,0s2.18,4.11,8.59.63c0,0,1.26,4.59,8.34.32l-.09-8.84S52.45,191.62,46.69,192.68Z"/><path class="cls-31" d="M86.68,192.68s11.07-.42,8.61,7.89a7.06,7.06,0,0,1-6,0s-2.18,4.11-8.59.63c0,0-2.21,4.59-9.3.32l.9-8.84S80.92,191.62,86.68,192.68Z"/><path class="cls-4" d="M44.05,200.57s-2.51-5.94,4.08-6.53C48.13,194,42.83,194.63,44.05,200.57Z"/><path class="cls-4" d="M52.64,201.2s-2.19-5.5,3-7.16C55.66,194,51.45,195.6,52.64,201.2Z"/><path class="cls-4" d="M80.73,201.2s2.12-7-2.8-6.87C77.93,194.33,81.87,194.06,80.73,201.2Z"/><path class="cls-4" d="M89.32,200.57s2.85-5.52-3.74-6.53C85.58,194,91.21,194.87,89.32,200.57Z"/><path class="cls-32" d="M27.55,81.29h-.12a.87.87,0,0,1,.12-1.74h.12a.88.88,0,0,1,.58.33.84.84,0,0,1,.16.65.87.87,0,0,1-.86.75Z"/><path class="cls-33" d="M110.65,23.77s15.69-6.5,6.63-18.25S98.18,3.07,96.12,12.1Z"/><path class="cls-34" d="M99.64,13.41c1.41-3.67,3.89-6.16,6.64-6.79,2.49-.56,3.89.09,6.42,3.36,1.8,2.34,2.33,3.93,1.83,5.8A9.52,9.52,0,0,1,110,21.45Z"/><path class="cls-35" d="M32.12,24.3S17.44,15.75,28,5.33s19.26.12,20.09,9.35Z"/><path class="cls-36" d="M35.21,22c-1.87-1.46-4.75-3.42-5.08-6.07C29.9,14,30.8,12.05,32.9,10s3.69-3.19,5.52-3.3c3.76-.23,6.41,3.55,7.48,8.08Z"/><path class="cls-37" d="M120.66,45.1c8.42,59.22-49.53,46.36-74.12,46.36S4.07,65.58,14.88,42.84C28.33,14.55,64.59,5.93,82.55,7.8,101.77,9.79,117.34,21.7,120.66,45.1Z"/><path class="cls-16" d="M91.61,47.24S79.49,47,76.92,30.38c-1.64-10.6-16.49-12-23.31-6.08s-.24,12.48-19.75,22C33.86,46.25,76.73,50.2,91.61,47.24Z"/><path class="cls-38" d="M64.84,30.47a3.89,3.89,0,1,1,3.4,4.29A3.86,3.86,0,0,1,64.84,30.47Z"/><path class="cls-19" d="M55.55,30a3.2,3.2,0,1,1,2.8,3.52A3.19,3.19,0,0,1,55.55,30Z"/><path d="M61.64,31.19a2.5,2.5,0,1,1-2.18-2.79A2.5,2.5,0,0,1,61.64,31.19Z"/><path d="M71.34,31.81a3,3,0,1,1-2.65-3.39A3,3,0,0,1,71.34,31.81Z"/><path class="cls-17" d="M70.92,31.32a1.47,1.47,0,1,1-1.28-1.63A1.47,1.47,0,0,1,70.92,31.32Z"/><path class="cls-17" d="M61.29,30.79a1.2,1.2,0,1,1-1-1.34A1.2,1.2,0,0,1,61.29,30.79Z"/><path d="M72.31,21.05a102.62,102.62,0,0,0-16.88.57S64.17,18.74,72.31,21.05Z"/><path class="cls-39" d="M12.33,50.41a74.67,74.67,0,0,1,23.48-7.94,92.08,92.08,0,0,0-22,2.81A31.51,31.51,0,0,0,12.33,50.41Z"/><path class="cls-40" d="M20.33,33.89l17.74.6s-4.9-1.94-15.38-3.5C21.87,31.92,21.09,32.89,20.33,33.89Z"/><path class="cls-41" d="M43.76,28.38a63.42,63.42,0,0,0-8.93-7.89c-1,.64-1.94,1.31-2.88,2A87.61,87.61,0,0,1,43.76,28.38Z"/><path class="cls-42" d="M120.81,46.19a106.38,106.38,0,0,0-28.94-4.25c13.32,1.86,25,8,29.53,10.59C121.29,50.51,121.1,48.4,120.81,46.19Z"/><path class="cls-43" d="M117.33,32.6a44,44,0,0,0-1.91-4c-17.16,1.82-25.09,4.94-25.09,4.94Z"/><path class="cls-44" d="M100.51,13.31A75.81,75.81,0,0,0,83.87,26.58c5.3-3.4,14.61-7.29,21.55-10A39.66,39.66,0,0,0,100.51,13.31Z"/><path class="cls-45" d="M84.18,8c-.54-.07-1.09-.14-1.63-.19-.92-.1-1.89-.16-2.9-.21A48.73,48.73,0,0,0,76,19,129.89,129.89,0,0,1,84.18,8Z"/><path class="cls-46" d="M58.6,19a45.73,45.73,0,0,0-2.33-8.26c-1,.28-2,.57-2.93.9C55,13.84,57,16.45,58.6,19Z"/><path class="cls-32" d="M41.39,84.77s-3.17,17.5,25.23,17.09S83,81.88,83,81.88,59,69,41.39,84.77Z"/><path class="cls-16" d="M42.42,44.69S3.44,48.07,8,76.15c5.64,35.09,50,43.29,50,43.29s54.4-2.14,60.27-39.92S79.49,47,79.49,47Z"/><path class="cls-47" d="M112.61,94.31c-1.52.37-3.1.78-4.74,1.24-47.29,13.29-50.61-7.94-50.61-7.94-4,13.49-35.86,5.46-35.86,5.46a55.78,55.78,0,0,0-7.9-1.73C27,113.71,58,119.44,58,119.44S97.18,117.89,112.61,94.31Z"/><path class="cls-48" d="M45.63,59.59s-4.35-9.9,17.72-27c0,0,11.72,18.56,11,26.51S45.63,59.59,45.63,59.59Z"/><path class="cls-16" d="M107.87,52.2s16.58,8.09,18,21.47A10.6,10.6,0,0,0,119,72s5.47,5.81,5.8,18.35c0,0-4.14-6.77-6.36-7.56,0,0,1.11,10.34-2.23,16.19,0,0-.49-7.5-8.32-3.47Z"/><path class="cls-16" d="M17.88,53.13S5.29,61.22,1.67,71.48A7.21,7.21,0,0,1,7.61,71S.55,77.57,0,85.65c0,0,4-3.3,7.59-4.43,0,0-4.39,13.35,0,19.2,0,0,.1-11.36,13.81-7.35C21.4,93.07,41.06,48.74,17.88,53.13Z"/><path class="cls-49" d="M10,67.16s9.6-12.87,31.16-16.4C41.11,50.76,21.85,48.05,10,67.16Z"/><path class="cls-49" d="M110.83,70S98.79,55.83,76,51.64C76,51.64,96.79,49.75,110.83,70Z"/><path class="cls-49" d="M26.56,78.61s-11,3.2-14,11.51C12.54,90.12,14.07,77.74,26.56,78.61Z"/><path class="cls-49" d="M90.76,78.61s11,3.2,14,11.51C104.79,90.12,103.26,77.74,90.76,78.61Z"/><path class="cls-49" d="M90.41,61.27s5.77,6.38,4.43,12.88C94.84,74.15,98.73,65.63,90.41,61.27Z"/><path class="cls-49" d="M102.81,66.78s3.62,7.8.42,13.61C103.23,80.39,109.47,73.41,102.81,66.78Z"/><path class="cls-49" d="M29.62,59.47s-5.49,6.07-4.21,12.25C25.41,71.72,21.7,63.63,29.62,59.47Z"/><path class="cls-49" d="M17.82,64.72s-3.44,7.41-.4,12.94C17.42,77.66,11.48,71,17.82,64.72Z"/><path class="cls-50" d="M64.18,102.08s16.37,3.64,27.15,9.34a62.48,62.48,0,0,0,9.2-5.12A255.84,255.84,0,0,0,64.18,102.08Z"/><path class="cls-51" d="M28.31,106.76C37.51,102.34,50,99.57,50,99.57a208.62,208.62,0,0,0-27.14,2.89A62.26,62.26,0,0,0,28.31,106.76Z"/><path class="cls-32" d="M79.76,93.41c0,6.77-9.05,12.27-20.21,12.27s-20.21-5.5-20.21-12.27,9-12.27,20.21-12.27S79.76,86.63,79.76,93.41Z"/><path class="cls-52" d="M78.73,97.28a9.69,9.69,0,0,0,.56-1.23L51.36,87l-12,6.61a7.77,7.77,0,0,0,.74,3.13c2.6.53,6.4.41,10.84-2.44C50.92,94.26,61.26,103.65,78.73,97.28Z"/><path class="cls-53" d="M51,52.13s-18.51-.33-25.8,15S33,100.58,44.53,95.42A16.13,16.13,0,0,0,51,90.29s5,10.23,24.63,7.91,17.66-29.08,4.52-37.1S51,52.13,51,52.13Z"/><path class="cls-32" d="M75.29,73.57a.81.81,0,0,1-.8-.81.81.81,0,0,1,1.61,0,.81.81,0,0,1-.81.81Z"/><path class="cls-32" d="M66.8,85.1a.65.65,0,1,1,.65-.65.66.66,0,0,1-.65.65Z"/><path class="cls-32" d="M70.69,78.72a.65.65,0,1,1,.65-.65.66.66,0,0,1-.65.65Z"/><path class="cls-32" d="M78.48,80.85a.66.66,0,1,1,.65-.65.66.66,0,0,1-.65.65Z"/><path class="cls-32" d="M37.24,69.15h-.11a.81.81,0,0,1,.11-1.61h.11a.8.8,0,0,1-.1,1.6Z"/><path class="cls-32" d="M37.37,76.89h-.09a.65.65,0,0,1,.09-1.3h.09a.65.65,0,0,1-.09,1.29Z"/><path class="cls-32" d="M63,77.88a.65.65,0,1,1,.65-.65.66.66,0,0,1-.65.65Z"/><path class="cls-32" d="M68.92,68.81a.65.65,0,1,1,.65-.65.65.65,0,0,1-.65.65Z"/><path class="cls-32" d="M38.54,86.6a.65.65,0,1,1,.65-.65.65.65,0,0,1-.65.65Z"/><path class="cls-32" d="M44.54,76.82h-.09a.65.65,0,0,1,.09-1.29h.09a.73.73,0,0,1,.43.25.67.67,0,0,1,.12.49.65.65,0,0,1-.64.56Z"/><path class="cls-32" d="M32.2,81.16h-.09a.65.65,0,0,1-.55-.74.65.65,0,0,1,.64-.56h.09a.64.64,0,0,1,.43.25.6.6,0,0,1,.12.48.65.65,0,0,1-.64.57Z"/><path class="cls-32" d="M29.59,72.74H29.5A.65.65,0,0,1,29,72a.65.65,0,0,1,.64-.56h.09a.65.65,0,0,1-.09,1.29Z"/><path class="cls-48" d="M53.61,54.94c15,1.48,24.19,5.14,29.93,8.88a17.74,17.74,0,0,0-3.4-2.72c-13.13-8-29.15-9-29.15-9s-17.26-.3-25,13.46h0S36.27,53.22,53.61,54.94Z"/><path class="cls-54" d="M50.27,64.57S36.58,50.8,52.06,48.88s15.08,6.53,15.08,6.53S54.68,59.26,50.27,64.57Z"/><path class="cls-55" d="M58.87,51.49c0,1-2.36,1.75-5.26,1.75s-5.25-.78-5.25-1.75,2.35-1.74,5.25-1.74S58.87,50.53,58.87,51.49Z"/><path class="cls-56" d="M67.12,55a2.79,2.79,0,0,0-1.34,0,31.62,31.62,0,0,0-8.1,2.36,37,37,0,0,0-4.61,3.12c-1.25,1.12-2.74,2.24-4.36.87a14.9,14.9,0,0,1-3.12-4.74,13.14,13.14,0,0,1-.9-2.39c-.09,4.58,5.58,10.28,5.58,10.28,4.41-5.31,16.87-9.16,16.87-9.16S67.14,55.26,67.12,55Z"/><path class="cls-57" d="M55.07,118.78c1.83.46,2.9.66,2.9.66s.56,0,1.54-.1a34.69,34.69,0,0,1-2.77-10.16A56.57,56.57,0,0,0,55.07,118.78Z"/><polygon class="cls-58" points="60.82 187.64 60.78 184.17 50.36 185.69 60.82 187.64"/><polygon class="cls-59" points="48.88 177.69 58.89 176.46 49.28 174.98 48.88 177.69"/><polygon class="cls-60" points="60.57 167.73 60.53 164.94 52.18 166.69 60.57 167.73"/><polygon class="cls-61" points="74.78 167.69 82.85 166.69 75.03 165.05 74.78 167.69"/><polygon class="cls-62" points="84.85 177.53 84.73 175.13 76.14 176.46 84.85 177.53"/><polygon class="cls-63" points="72.83 187.57 82.86 185.69 73.15 184.27 72.83 187.57"/><path class="cls-64" d="M161,88.27A16.16,16.16,0,0,0,155.46,83a23.22,23.22,0,0,1,2.83,6.84c.51-.32,1-.64,1.54-.94S160.62,88.46,161,88.27Z"/><path class="cls-65" d="M167.75,77.85a23.09,23.09,0,0,1,1,7.5,13.48,13.48,0,0,0,1.9-7.25,13.94,13.94,0,0,0-2.69-.26Z"/><path class="cls-66" d="M179.58,90.12a24.18,24.18,0,0,1-6.74,2.18,20.11,20.11,0,0,1,.5,3C178.4,93.09,179.58,90.12,179.58,90.12Z"/><path class="cls-67" d="M174,105.68a23.78,23.78,0,0,0,7.82.34c.08-.91.14-1.82.2-2.73A22.59,22.59,0,0,1,174,105.68Z"/><path class="cls-68" d="M172.21,116c-.09.81-.19,1.6-.29,2.4l-.09.79c0,.13,0,.26,0,.39a19.13,19.13,0,0,0,7.79-1.63A16.73,16.73,0,0,1,172.21,116Z"/><path class="cls-69" d="M181.51,132.93a8.14,8.14,0,0,1-1.37-3.3,27.53,27.53,0,0,1-6.17,3.59A15.63,15.63,0,0,0,181.51,132.93Z"/><path class="cls-70" d="M185.17,145.68c.57.16,1.13.31,1.71.44a30.92,30.92,0,0,0,1.14-7.48,33.29,33.29,0,0,1-6.21,5.86A25.45,25.45,0,0,0,185.17,145.68Z"/><path class="cls-71" d="M201,144.48s1.8-2.33.75-7.28a13.51,13.51,0,0,1-2.72.72A17.77,17.77,0,0,1,201,144.48Z"/><path class="cls-72" d="M207.8,88.77c.52,1,1,2.08,1.44,3.11A47.16,47.16,0,0,1,217,89.79S212,87.61,207.8,88.77Z"/><path class="cls-73" d="M220.83,101.65a19,19,0,0,0-6.53,2.74c2.33-.25,4.72-.34,6.75-.35C221,103.23,220.92,102.44,220.83,101.65Z"/><path class="cls-74" d="M212.61,115c-.08.89-.19,1.78-.32,2.67a27.7,27.7,0,0,1,7,.46S218,116.22,212.61,115Z"/><path class="cls-75" d="M209.64,130.22a18,18,0,0,1,5.45,5.14,28.57,28.57,0,0,0,1.91-3.63C212.06,129.59,209.64,130.22,209.64,130.22Z"/></g></g></svg>